HIERARCHY
ROOT Hips
{
	OFFSET 0.000000 0.000000 0.000000 
	CHANNELS 6 Xposition Yposition Zposition Zrotation Yrotation Xrotation
	JOINT LeftUpLeg
	{
		OFFSET 1.363060 -1.794630 0.839290 
		CHANNELS 3 Zrotation Yrotation Xrotation
		JOINT LeftLeg
		{
			OFFSET 2.448110 -6.726130 0.000000 
			CHANNELS 3 Zrotation Yrotation Xrotation
			JOINT LeftFoot
			{
				OFFSET 2.562200 -7.039590 0.000000 
				CHANNELS 3 Zrotation Yrotation Xrotation
				JOINT LeftToeBase
				{
					OFFSET 0.157640 -0.433110 2.322550 
					CHANNELS 3 Zrotation Yrotation Xrotation
					End Site
					{
						OFFSET 0.000000 0.000000 0.000000 
					}
				}
			}
		}
	}
	JOINT RightUpLeg
	{
		OFFSET -1.305520 -1.794630 0.839290 
		CHANNELS 3 Zrotation Yrotation Xrotation
		JOINT RightLeg
		{
			OFFSET -2.542530 -6.985550 0.000000 
			CHANNELS 3 Zrotation Yrotation Xrotation
			JOINT RightFoot
			{
				OFFSET -2.568260 -7.056230 0.000000 
				CHANNELS 3 Zrotation Yrotation Xrotation
				JOINT RightToeBase
				{
					OFFSET -0.164730 -0.452590 2.363150 
					CHANNELS 3 Zrotation Yrotation Xrotation
					End Site
					{
						OFFSET 0.000000 0.000000 0.000000 
					}
				}
			}
		}
	}
	JOINT Spine
	{
		OFFSET 0.028270 2.035590 -0.193380 
		CHANNELS 3 Zrotation Yrotation Xrotation
		JOINT Spine1
		{
			OFFSET 0.056720 2.048850 -0.042750 
			CHANNELS 3 Zrotation Yrotation Xrotation
			JOINT Neck1
			{
				OFFSET -0.054170 1.746240 0.172020 
				CHANNELS 3 Zrotation Yrotation Xrotation
				JOINT Head
				{
					OFFSET 0.104070 1.761360 -0.123970 
					CHANNELS 3 Zrotation Yrotation Xrotation
					End Site
					{
						OFFSET 0.000000 0.000000 0.000000 
					}
				}
			}
			JOINT LeftArm
			{
				OFFSET 3.362410 1.200890 -0.311210 
				CHANNELS 3 Zrotation Yrotation Xrotation
				JOINT LeftForeArm
				{
					OFFSET 4.983000 -0.000000 -0.000000 
					CHANNELS 3 Zrotation Yrotation Xrotation
					JOINT LeftHand
					{
						OFFSET 3.483560 -0.000000 -0.000000 
						CHANNELS 3 Zrotation Yrotation Xrotation
						JOINT LeftHandIndex1
						{
							OFFSET 0.715260 -0.000000 -0.000000 
							CHANNELS 3 Zrotation Yrotation Xrotation
							End Site
							{
								OFFSET 0.000000 0.000000 0.000000 
							}
						}
					}
				}
			}
			JOINT RightArm
			{
				OFFSET -3.136600 1.374050 -0.404650 
				CHANNELS 3 Zrotation Yrotation Xrotation
				JOINT RightForeArm
				{
					OFFSET -5.241900 -0.000000 -0.000000 
					CHANNELS 3 Zrotation Yrotation Xrotation
					JOINT RightHand
					{
						OFFSET -3.444170 -0.000000 -0.000000 
						CHANNELS 3 Zrotation Yrotation Xrotation
						JOINT RightHandIndex1
						{
							OFFSET -0.622530 -0.000000 -0.000000 
							CHANNELS 3 Zrotation Yrotation Xrotation
							End Site
							{
								OFFSET 0.000000 0.000000 0.000000 
							}
						}
					}
				}
			}
		}
	}
}
MOTION
Frames: 7
Frame Time: 0.041667
10.384145 17.440575 13.910115 3.207637 -6.400298 6.627749 -11.670388 -4.625206 -16.032771 1.800258 11.517658 32.685025 -3.328252 19.630718 -23.216907 0.241400 -3.161600 -8.729100 10.740117 23.957700 -12.357931 -3.075789 -12.979215 36.864868 3.025560 -25.611675 -28.752094 -0.006100 -0.505600 1.389300 1.583731 -2.207989 -4.746974 4.892306 -1.098006 5.005759 17.961008 -11.036137 2.225881 7.418500 -4.750400 3.150500 -88.273518 -0.820251 49.578110 19.300117 -22.698688 -4.835693 -1.476587 -0.063736 -14.062036 -7.125000 0.000000 0.000000 81.721757 3.419241 24.116670 -15.148719 20.154850 -3.891586 1.978200 -0.489076 9.385606 7.125000 0.000000 0.000000 
10.378965 17.443108 13.915757 3.168910 -6.389961 6.613520 -11.611084 -4.568248 -16.016214 1.801639 11.515300 32.684978 -3.296261 19.496784 -23.173459 0.233300 -3.108600 -8.581300 10.817015 23.872951 -12.345226 -3.075617 -12.978132 36.864756 3.020460 -25.576297 -28.714487 -0.005700 -0.485400 1.333900 1.593665 -2.277175 -4.751973 4.880632 -1.131547 4.985524 17.705118 -11.236428 2.309159 7.241500 -4.864200 3.171400 -88.229479 -0.836811 49.437247 19.259023 -22.651984 -4.818776 -1.478211 -0.050230 -14.127508 -7.125000 0.000000 0.000000 81.791565 3.391265 24.454108 -15.200014 20.207791 -3.896348 1.972637 -0.503585 9.379373 7.125000 0.000000 0.000000 
10.373093 17.445295 13.922089 3.155985 -6.387437 6.548450 -11.582611 -4.539116 -15.935022 1.804768 11.515917 32.695966 -3.266678 19.385569 -23.151225 0.219700 -3.017100 -8.326400 10.900813 23.832324 -12.228667 -3.070174 -12.968265 36.846162 2.979327 -25.476002 -28.804011 -0.005200 -0.466300 1.281300 1.598496 -2.315674 -4.745825 4.897170 -1.149810 4.963007 17.528986 -11.372994 2.314688 7.141900 -4.951500 3.117200 -88.155622 -0.824881 49.381112 19.257859 -22.659356 -4.825227 -1.476511 -0.012113 -14.131645 -7.125000 0.000000 0.000000 81.851021 3.441455 24.668400 -15.197966 20.198925 -3.882322 1.962585 -0.530298 9.489531 7.125000 0.000000 0.000000 
10.369179 17.446447 13.926233 3.132543 -6.406714 6.526865 -11.552286 -4.604013 -15.867361 1.806527 11.515224 32.698506 -3.289583 19.470758 -23.168006 0.220700 -3.024200 -8.346000 10.938654 23.740448 -12.212639 -3.066615 -12.962914 36.834118 2.929710 -25.295592 -28.798641 -0.007000 -0.540300 1.484600 1.605667 -2.340802 -4.739893 4.949322 -1.151699 4.885786 17.423813 -11.429049 2.172154 7.155700 -5.012100 2.922900 -88.142233 -0.768243 49.298151 19.268124 -22.682088 -4.839711 -1.476172 0.029518 -13.973209 -7.125000 0.000000 0.000000 81.862982 3.476429 24.780665 -15.202405 20.200525 -3.882182 1.961881 -0.530835 9.578756 7.125000 0.000000 0.000000 
10.368603 17.449555 13.928191 3.070724 -6.428151 6.585693 -11.486184 -4.703878 -15.868687 1.804675 11.511318 32.690518 -3.303476 19.548417 -23.245802 0.219600 -3.016900 -8.325800 10.953252 23.627590 -12.342660 -3.064881 -12.963766 36.828398 2.897064 -25.141245 -28.725341 -0.005900 -0.496000 1.362900 1.618732 -2.390479 -4.755339 4.992027 -1.166911 4.805401 17.225189 -11.652786 2.252381 7.089700 -5.136500 2.955600 -88.190990 -0.712970 49.198447 19.276614 -22.685458 -4.842618 -1.474159 0.036265 -13.900810 -7.125000 0.000000 0.000000 81.847958 3.453103 24.861860 -15.235603 20.237570 -3.902218 1.969280 -0.518355 9.591417 7.125000 0.000000 0.000000 
10.368142 17.451167 13.930378 3.075541 -6.478887 6.631346 -11.491903 -4.699258 -15.890698 1.801477 11.510134 32.692368 -3.253951 19.420325 -23.332424 0.202700 -2.899100 -7.998000 10.913306 23.579397 -12.446545 -3.066417 -12.965688 36.827723 2.919373 -25.153466 -28.593141 -0.003700 -0.390800 1.073700 1.627899 -2.439297 -4.775340 5.073343 -1.197276 4.816056 16.903686 -12.119209 2.622445 6.902300 -5.354300 3.297000 -88.246827 -0.753072 49.186897 19.270026 -22.667032 -4.833876 -1.472550 0.025295 -14.029179 -7.125000 0.000000 0.000000 81.785111 3.458012 25.039670 -15.296189 20.297300 -3.924473 1.975581 -0.504733 9.470166 7.125000 0.000000 0.000000 
10.365840 17.447368 13.934292 3.131334 -6.571513 6.607514 -11.554093 -4.614493 -15.882067 1.803736 11.514093 32.708693 -3.251151 19.452152 -23.412064 0.210800 -2.956100 -8.156500 10.872390 23.591306 -12.438163 -3.069781 -12.965890 36.826516 2.984309 -25.288524 -28.399666 -0.003300 -0.373100 1.025100 1.639988 -2.505053 -4.777954 5.229502 -1.238542 4.855153 16.602981 -12.565850 2.851219 6.779500 -5.575400 3.513500 -88.325064 -0.877355 49.207007 19.172030 -22.559095 -4.794615 -1.482437 0.031546 -14.235802 -7.125000 0.000000 0.000000 81.644414 3.524194 25.412048 -15.361419 20.355442 -3.942513 1.978224 -0.492852 9.266916 7.125000 0.000000 0.000000 
